<svg width="121" height="47" viewBox="0 0 121 47" fill="none" xmlns="http://www.w3.org/2000/svg">
<rect x="25.5" y="18.5" width="9" height="9" fill="white" stroke="black"/>
<rect x="55.5" y="28.5" width="9" height="9" fill="black" stroke="white"/>
<rect x="79.5" y="21.5" width="9" height="9" fill="#444FAF" stroke="black"/>
<path d="M21.4601 12.568C24.7668 12.568 27.3055 13.1547 29.0761 14.328C30.8468 15.48 31.7321 17.3787 31.7321 20.024C31.7321 22.6907 30.8361 24.6213 29.0441 25.816C27.2521 26.9893 24.6921 27.576 21.3641 27.576H19.7961V35H14.8041V13.144C15.8921 12.9307 17.0441 12.7813 18.2601 12.696C19.4761 12.6107 20.5428 12.568 21.4601 12.568ZM21.7801 16.824C21.4175 16.824 21.0548 16.8347 20.6921 16.856C20.3508 16.8773 20.0521 16.8987 19.7961 16.92V23.32H21.3641C23.0921 23.32 24.3935 23.0853 25.2681 22.616C26.1428 22.1467 26.5801 21.272 26.5801 19.992C26.5801 19.3733 26.4628 18.8613 26.2281 18.456C26.0148 18.0507 25.6948 17.7307 25.2681 17.496C24.8628 17.24 24.3615 17.0693 23.7641 16.984C23.1668 16.8773 22.5055 16.824 21.7801 16.824Z" fill="#2D6CA7"/>
<path d="M37.2179 35H34.2379V24.48H37.2179V35ZM37.4979 21.44C37.4979 21.9867 37.3179 22.42 36.9579 22.74C36.6112 23.0467 36.1979 23.2 35.7179 23.2C35.2379 23.2 34.8179 23.0467 34.4579 22.74C34.1112 22.42 33.9379 21.9867 33.9379 21.44C33.9379 20.8933 34.1112 20.4667 34.4579 20.16C34.8179 19.84 35.2379 19.68 35.7179 19.68C36.1979 19.68 36.6112 19.84 36.9579 20.16C37.3179 20.4667 37.4979 20.8933 37.4979 21.44ZM44.1991 27.68L46.2791 24.48H49.3591L45.7591 29.54C46.5591 30.54 47.2858 31.5133 47.9391 32.46C48.5925 33.4067 49.1125 34.2533 49.4991 35H46.2991C46.1925 34.8 46.0591 34.5533 45.8991 34.26C45.7391 33.9533 45.5591 33.64 45.3591 33.32C45.1591 32.9867 44.9458 32.66 44.7191 32.34C44.5058 32.0067 44.2925 31.7067 44.0791 31.44C43.8791 31.6933 43.6725 31.9733 43.4591 32.28C43.2591 32.5867 43.0658 32.9 42.8791 33.22C42.6925 33.5267 42.5058 33.8333 42.3191 34.14C42.1458 34.4467 41.9925 34.7333 41.8591 35H38.8191C38.9791 34.6667 39.1991 34.2733 39.4791 33.82C39.7591 33.3667 40.0591 32.9 40.3791 32.42C40.7125 31.9267 41.0591 31.44 41.4191 30.96C41.7791 30.4667 42.1325 30.0067 42.4791 29.58C41.8791 28.74 41.2791 27.8933 40.6791 27.04C40.0791 26.1733 39.4858 25.32 38.8991 24.48H42.1191L44.1991 27.68ZM50.1051 29.82C50.1051 28.8867 50.2451 28.0733 50.5251 27.38C50.8184 26.6733 51.1984 26.0867 51.6651 25.62C52.1317 25.1533 52.6651 24.8 53.2651 24.56C53.8784 24.32 54.5051 24.2 55.1451 24.2C56.6384 24.2 57.8184 24.66 58.6851 25.58C59.5517 26.4867 59.9851 27.8267 59.9851 29.6C59.9851 29.7733 59.9784 29.9667 59.9651 30.18C59.9517 30.38 59.9384 30.56 59.9251 30.72H53.1651C53.2317 31.3333 53.5184 31.82 54.0251 32.18C54.5317 32.54 55.2117 32.72 56.0651 32.72C56.6117 32.72 57.1451 32.6733 57.6651 32.58C58.1984 32.4733 58.6317 32.3467 58.9651 32.2L59.3651 34.62C59.2051 34.7 58.9917 34.78 58.7251 34.86C58.4584 34.94 58.1584 35.0067 57.8251 35.06C57.5051 35.1267 57.1584 35.18 56.7851 35.22C56.4117 35.26 56.0384 35.28 55.6651 35.28C54.7184 35.28 53.8917 35.14 53.1851 34.86C52.4917 34.58 51.9117 34.2 51.4451 33.72C50.9917 33.2267 50.6517 32.6467 50.4251 31.98C50.2117 31.3133 50.1051 30.5933 50.1051 29.82ZM57.1051 28.68C57.0917 28.4267 57.0451 28.18 56.9651 27.94C56.8984 27.7 56.7851 27.4867 56.6251 27.3C56.4784 27.1133 56.2851 26.96 56.0451 26.84C55.8184 26.72 55.5317 26.66 55.1851 26.66C54.8517 26.66 54.5651 26.72 54.3251 26.84C54.0851 26.9467 53.8851 27.0933 53.7251 27.28C53.5651 27.4667 53.4384 27.6867 53.3451 27.94C53.2651 28.18 53.2051 28.4267 53.1651 28.68H57.1051ZM66.4848 35.2C65.6181 35.1867 64.9114 35.0933 64.3648 34.92C63.8314 34.7467 63.4048 34.5067 63.0848 34.2C62.7781 33.88 62.5648 33.5 62.4448 33.06C62.3381 32.6067 62.2848 32.1 62.2848 31.54V19.96L65.2648 19.48V30.94C65.2648 31.2067 65.2848 31.4467 65.3248 31.66C65.3648 31.8733 65.4381 32.0533 65.5448 32.2C65.6648 32.3467 65.8314 32.4667 66.0448 32.56C66.2581 32.6533 66.5448 32.7133 66.9048 32.74L66.4848 35.2ZM71.6329 32.86C72.1796 32.86 72.5662 32.8067 72.7929 32.7C73.0196 32.5933 73.1329 32.3867 73.1329 32.08C73.1329 31.84 72.9862 31.6333 72.6929 31.46C72.3996 31.2733 71.9529 31.0667 71.3529 30.84C70.8862 30.6667 70.4596 30.4867 70.0729 30.3C69.6996 30.1133 69.3796 29.8933 69.1129 29.64C68.8462 29.3733 68.6396 29.06 68.4929 28.7C68.3462 28.34 68.2729 27.9067 68.2729 27.4C68.2729 26.4133 68.6396 25.6333 69.3729 25.06C70.1062 24.4867 71.1129 24.2 72.3929 24.2C73.0329 24.2 73.6462 24.26 74.2329 24.38C74.8196 24.4867 75.2862 24.6067 75.6329 24.74L75.1129 27.06C74.7662 26.94 74.3862 26.8333 73.9729 26.74C73.5729 26.6467 73.1196 26.6 72.6129 26.6C71.6796 26.6 71.2129 26.86 71.2129 27.38C71.2129 27.5 71.2329 27.6067 71.2729 27.7C71.3129 27.7933 71.3929 27.8867 71.5129 27.98C71.6329 28.06 71.7929 28.1533 71.9929 28.26C72.2062 28.3533 72.4729 28.46 72.7929 28.58C73.4462 28.82 73.9862 29.06 74.4129 29.3C74.8396 29.5267 75.1729 29.78 75.4129 30.06C75.6662 30.3267 75.8396 30.6267 75.9329 30.96C76.0396 31.2933 76.0929 31.68 76.0929 32.12C76.0929 33.16 75.6996 33.9467 74.9129 34.48C74.1396 35.0133 73.0396 35.28 71.6129 35.28C70.6796 35.28 69.8996 35.2 69.2729 35.04C68.6596 34.88 68.2329 34.7467 67.9929 34.64L68.4929 32.22C68.9996 32.42 69.5196 32.58 70.0529 32.7C70.5862 32.8067 71.1129 32.86 71.6329 32.86ZM87.7799 32.32V35H78.5199V21.14H81.6399V32.32H87.7799ZM89.4895 21.86L92.4695 21.38V24.48H96.0495V26.96H92.4695V30.66C92.4695 31.2867 92.5761 31.7867 92.7895 32.16C93.0161 32.5333 93.4628 32.72 94.1295 32.72C94.4495 32.72 94.7761 32.6933 95.1095 32.64C95.4561 32.5733 95.7695 32.4867 96.0495 32.38L96.4695 34.7C96.1095 34.8467 95.7095 34.9733 95.2695 35.08C94.8295 35.1867 94.2895 35.24 93.6495 35.24C92.8361 35.24 92.1628 35.1333 91.6295 34.92C91.0961 34.6933 90.6695 34.3867 90.3495 34C90.0295 33.6 89.8028 33.12 89.6695 32.56C89.5495 32 89.4895 31.38 89.4895 30.7V21.86ZM100.626 29.66C100.626 30.58 100.832 31.32 101.246 31.88C101.659 32.44 102.272 32.72 103.086 32.72C103.352 32.72 103.599 32.7133 103.826 32.7C104.052 32.6733 104.239 32.6467 104.386 32.62V27.2C104.199 27.08 103.952 26.98 103.646 26.9C103.352 26.82 103.052 26.78 102.746 26.78C101.332 26.78 100.626 27.74 100.626 29.66ZM107.366 34.66C107.099 34.74 106.792 34.82 106.446 34.9C106.099 34.9667 105.732 35.0267 105.346 35.08C104.972 35.1333 104.586 35.1733 104.186 35.2C103.799 35.24 103.426 35.26 103.066 35.26C102.199 35.26 101.426 35.1333 100.746 34.88C100.066 34.6267 99.4922 34.2667 99.0255 33.8C98.5589 33.32 98.1989 32.7467 97.9455 32.08C97.7055 31.4 97.5855 30.64 97.5855 29.8C97.5855 28.9467 97.6922 28.18 97.9055 27.5C98.1189 26.8067 98.4255 26.22 98.8255 25.74C99.2255 25.26 99.7122 24.8933 100.286 24.64C100.872 24.3867 101.539 24.26 102.286 24.26C102.699 24.26 103.066 24.3 103.386 24.38C103.719 24.46 104.052 24.5733 104.386 24.72V19.96L107.366 19.48V34.66Z" fill="black"/>
</svg>
